<svg width="500" height="300" viewBox="0 0 500 300" fill="none" xmlns="http://www.w3.org/2000/svg">
<g clip-path="url(#clip0_1_250)">
<rect width="500" height="300" fill="white"/>
<g clip-path="url(#clip1_1_250)">
<path d="M367.053 81.3354L353.897 79.0052L340.46 115.269L317.515 149.451C315.899 149.497 314.334 150.023 313.02 150.963C311.705 151.903 310.7 153.213 310.133 154.726C309.567 156.24 309.464 157.888 309.839 159.46C310.213 161.032 311.048 162.456 312.236 163.552C313.424 164.647 314.911 165.364 316.508 165.61C318.106 165.856 319.74 165.62 321.203 164.933C322.665 164.246 323.89 163.138 324.72 161.752C325.55 160.365 325.948 158.763 325.863 157.149L353.887 124.841L367.053 81.3354Z" fill="#FFB7B7"/>
<path d="M412.082 36.15C412.082 49.1884 400.026 47.2163 385.154 47.2163C370.282 47.2163 358.226 49.1884 358.226 36.15C358.226 23.1115 364.115 0 385.154 0C406.918 0 412.082 23.1115 412.082 36.15Z" fill="#2F2E41"/>
<path d="M461.59 149.59L437.825 108.705L426.759 71.6493L413.479 73.1248L423.808 117.39L450.262 152.198C449.434 153.562 449.027 155.139 449.09 156.733C449.154 158.327 449.686 159.866 450.621 161.159C451.555 162.452 452.85 163.441 454.343 164.002C455.836 164.563 457.462 164.671 459.016 164.313C460.571 163.955 461.985 163.147 463.083 161.99C464.18 160.832 464.912 159.376 465.187 157.805C465.461 156.234 465.267 154.616 464.627 153.155C463.987 151.694 462.931 150.454 461.59 149.59Z" fill="#FFB7B7"/>
<path d="M438.011 214.686L465.308 289.2H476.537L457.274 212.014L438.011 214.686Z" fill="#FFB7B7"/>
<path d="M378.253 218.744L350.956 293.257H339.727L358.99 216.072L378.253 218.744Z" fill="#FFB7B7"/>
<path d="M406.288 56.807C406.288 56.807 417.354 53.1183 420.305 58.2825C423.256 63.4468 430.633 79.6774 430.633 79.6774L415.878 81.8907L429.158 115.09C429.158 115.09 447.602 129.107 452.028 160.83C456.455 192.554 460.881 218.375 460.881 218.375C460.881 218.375 384.155 230.917 354.645 225.753C354.645 225.753 356.858 210.26 362.76 209.522C358.334 205.096 364.166 201.407 364.166 201.407L377.515 153.453L380.466 129.845C380.466 129.845 375.327 105.703 368.662 101.072C361.998 96.4411 364.236 83.3662 364.236 83.3662L350.956 84.1039C350.956 84.1039 352.432 60.4958 359.071 60.4958H367.187L406.288 56.807Z" fill="#2F2E41"/>
<path d="M477.92 298.857L448.756 298.856V298.487C448.757 295.476 449.953 292.589 452.081 290.461C454.21 288.332 457.097 287.136 460.108 287.136L477.921 287.136L477.92 298.857Z" fill="#2F2E41"/>
<path d="M353.978 298.857L324.814 298.856V298.487C324.814 295.476 326.01 292.589 328.139 290.461C330.267 288.332 333.155 287.136 336.165 287.136L353.978 287.136L353.978 298.857Z" fill="#2F2E41"/>
<path d="M386.339 45.8757C396.347 45.8757 404.459 37.7631 404.459 27.7557C404.459 17.7483 396.347 9.63574 386.339 9.63574C376.332 9.63574 368.219 17.7483 368.219 27.7557C368.219 37.7631 376.332 45.8757 386.339 45.8757Z" fill="#FFB7B7"/>
<path d="M364.128 27.2968H371.295L374.457 18.4438L375.089 27.2968H378.514L380.359 22.1326L380.728 27.2968H406.18C406.18 22.2096 404.159 17.3307 400.562 13.7334C396.965 10.1362 392.086 8.11523 386.999 8.11523H383.31C378.222 8.11524 373.344 10.1362 369.746 13.7334C366.149 17.3307 364.128 22.2096 364.128 27.2968Z" fill="#2F2E41"/>
<path d="M551.158 300H270.073C269.878 300 269.69 299.922 269.552 299.784C269.413 299.646 269.335 299.458 269.335 299.262C269.335 299.067 269.413 298.879 269.552 298.741C269.69 298.602 269.878 298.525 270.073 298.525H551.158C551.353 298.525 551.541 298.602 551.679 298.741C551.818 298.879 551.895 299.067 551.895 299.262C551.895 299.458 551.818 299.646 551.679 299.784C551.541 299.922 551.353 300 551.158 300Z" fill="#CBCBCB"/>
<path d="M317.42 25.151H0V158.442H317.42V25.151Z" fill="#CBCBCB"/>
<path d="M6.6398 151.802H310.78V31.7908H6.6398V151.802Z" fill="white"/>
<path d="M263.911 74.9689V126.145C263.91 126.819 263.641 127.466 263.165 127.942C262.688 128.419 262.042 128.688 261.367 128.689H206.3C205.626 128.688 204.98 128.419 204.503 127.942C204.027 127.466 203.758 126.819 203.757 126.145V74.9689C203.757 74.2944 204.025 73.6476 204.502 73.1706C204.979 72.6937 205.626 72.4255 206.3 72.425H261.367C262.042 72.4255 262.689 72.6936 263.166 73.1706C263.643 73.6476 263.911 74.2944 263.911 74.9689Z" fill="#356BFC"/>
<path d="M237.724 128.946H229.943C229.277 128.954 228.636 128.698 228.159 128.233C227.682 127.769 227.409 127.134 227.399 126.468V73.3818C227.409 72.7161 227.682 72.0814 228.159 71.6168C228.636 71.1523 229.277 70.8958 229.943 70.9036H237.724C238.39 70.8958 239.031 71.1523 239.508 71.6168C239.985 72.0814 240.258 72.7161 240.268 73.3818V126.468C240.258 127.134 239.985 127.769 239.508 128.233C239.031 128.698 238.39 128.954 237.724 128.946Z" fill="#3F3D56"/>
<path d="M232.231 56.4062C236.231 59.8677 234.968 67.8783 234.968 67.8783C234.968 67.8783 227.221 70.2769 223.222 66.8154C219.223 63.3539 220.485 55.3433 220.485 55.3433C220.485 55.3433 228.232 52.9448 232.231 56.4062Z" fill="#3F3D56"/>
<path d="M245.515 66.1521C242.066 70.162 234.051 68.9243 234.051 68.9243C234.051 68.9243 231.629 61.185 235.077 57.1751C238.526 53.1651 246.541 54.4029 246.541 54.4029C246.541 54.4029 248.964 62.1421 245.515 66.1521Z" fill="#3F3D56"/>
<path opacity="0.2" d="M263.911 74.9689V83.5851L203.757 83.3307V74.9689C203.757 74.2944 204.025 73.6476 204.502 73.1706C204.979 72.6937 205.626 72.4255 206.3 72.425H261.367C262.042 72.4255 262.689 72.6936 263.166 73.1706C263.643 73.6476 263.911 74.2944 263.911 74.9689Z" fill="black"/>
<path d="M270.389 80.2072C270.15 80.5202 269.843 80.7736 269.49 80.9475C269.137 81.1214 268.749 81.211 268.356 81.2093L201.318 80.9281C200.984 80.9267 200.654 80.8595 200.346 80.7304C200.038 80.6013 199.758 80.4127 199.523 80.1755C199.288 79.9383 199.101 79.6571 198.975 79.3479C198.848 79.0388 198.784 78.7077 198.785 78.3736L198.817 70.8917C198.819 70.2172 199.09 69.5714 199.569 69.0963C200.048 68.6213 200.696 68.356 201.37 68.3588H201.371L268.408 68.6398C268.742 68.6412 269.073 68.7084 269.381 68.8375C269.689 68.9666 269.969 69.1552 270.204 69.3924C270.439 69.6296 270.626 69.9108 270.752 70.22C270.879 70.5291 270.943 70.8602 270.942 71.1943L270.91 78.6762C270.909 79.2299 270.725 79.7677 270.389 80.2072Z" fill="#356BFC"/>
<path d="M227.56 67.8711L227.506 81.3384L240.375 81.3899L240.429 67.9226L227.56 67.8711Z" fill="#3F3D56"/>
<path d="M121.256 71.6841H46.8405V77.6252H121.256V71.6841Z" fill="#E5E5E5"/>
<path d="M161.754 93.3549H46.8405V99.296H161.754V93.3549Z" fill="#356BFC"/>
<path d="M140.492 113.771H46.8405V119.712H140.492V113.771Z" fill="#E5E5E5"/>
<path d="M93.1287 257.129C96.023 258.147 99.1306 258.402 102.152 257.869C105.173 257.337 108.007 256.036 110.379 254.091C116.421 249.019 118.316 240.667 119.857 232.931L124.416 210.048L114.871 216.62C108.007 221.346 100.988 226.225 96.2356 233.07C91.4831 239.916 89.4098 249.262 93.2271 256.67" fill="#E6E6E6"/>
<path d="M94.6025 286.426C93.4011 277.674 92.1651 268.808 93.0098 259.962C93.7584 252.105 96.1554 244.433 101.035 238.139C103.626 234.806 106.777 231.949 110.349 229.699C111.28 229.111 112.138 230.587 111.21 231.172C105.03 235.078 100.25 240.845 97.5587 247.643C94.5866 255.202 94.1093 263.443 94.6213 271.473C94.9307 276.329 95.5883 281.153 96.2487 285.972C96.3008 286.189 96.2683 286.419 96.1576 286.614C96.047 286.809 95.8664 286.954 95.6526 287.021C95.4344 287.08 95.2018 287.05 95.0054 286.939C94.8089 286.827 94.6643 286.642 94.6031 286.425L94.6025 286.426Z" fill="#F2F2F2"/>
<path d="M103.25 272.382C104.491 274.269 106.197 275.804 108.204 276.841C110.211 277.877 112.451 278.378 114.708 278.298C120.51 278.022 125.345 273.975 129.697 270.13L142.572 258.762L134.051 258.355C127.924 258.061 121.637 257.786 115.801 259.678C109.964 261.57 104.581 266.116 103.514 272.157" fill="#E6E6E6"/>
<path d="M91.2066 291.457C96.9904 281.224 103.699 269.85 115.686 266.215C119.019 265.207 122.513 264.847 125.982 265.152C127.075 265.246 126.802 266.931 125.711 266.837C119.897 266.354 114.094 267.889 109.28 271.184C104.647 274.337 101.039 278.722 97.9864 283.371C96.1161 286.219 94.441 289.188 92.7658 292.152C92.2305 293.1 90.6651 292.416 91.2066 291.457Z" fill="#F2F2F2"/>
<path d="M154.246 293.36H53.9112C53.7156 293.36 53.5279 293.283 53.3896 293.144C53.2512 293.006 53.1735 292.818 53.1735 292.623C53.1735 292.427 53.2512 292.239 53.3896 292.101C53.5279 291.963 53.7156 291.885 53.9112 291.885H154.246C154.441 291.885 154.629 291.963 154.767 292.101C154.906 292.239 154.984 292.427 154.984 292.623C154.984 292.818 154.906 293.006 154.767 293.144C154.629 293.283 154.441 293.36 154.246 293.36Z" fill="#CBCBCB"/>
</g>
</g>
<defs>
<clipPath id="clip0_1_250">
<rect width="500" height="300" fill="white"/>
</clipPath>
<clipPath id="clip1_1_250">
<rect width="551.895" height="300" fill="white"/>
</clipPath>
</defs>
</svg>
