<svg width="500" height="300" viewBox="0 0 500 300" fill="none" xmlns="http://www.w3.org/2000/svg">
<rect width="500" height="300" fill="white"/>
<g clip-path="url(#clip0_1_109)">
<path d="M154.685 92.3741C153.783 92.3741 152.918 92.7324 152.28 93.3702C151.642 94.0081 151.284 94.8732 151.284 95.7752C151.284 96.6773 151.642 97.5424 152.28 98.1802C152.918 98.8181 153.783 99.1764 154.685 99.1764H197.438V97.6927C197.438 96.6382 197.699 95.6002 198.2 94.6719C198.7 93.7436 199.423 92.954 200.303 92.3741H154.685Z" fill="#E6E6E6"/>
<path d="M193.588 84.7214H179.133C178.231 84.7214 177.366 84.3631 176.728 83.7252C176.09 83.0874 175.732 82.2223 175.732 81.3202C175.732 80.4182 176.09 79.5531 176.728 78.9152C177.366 78.2774 178.231 77.919 179.133 77.919H193.588C194.49 77.919 195.355 78.2774 195.993 78.9152C196.631 79.5531 196.989 80.4182 196.989 81.3202C196.989 82.2223 196.631 83.0874 195.993 83.7252C195.355 84.3631 194.49 84.7214 193.588 84.7214Z" fill="#E6E6E6"/>
<path d="M161.168 60.488H105.049C104.147 60.488 103.282 60.1297 102.644 59.4918C102.006 58.854 101.648 57.9889 101.648 57.0868C101.648 56.1848 102.006 55.3197 102.644 54.6818C103.282 54.044 104.147 53.6856 105.049 53.6856H161.168C162.07 53.6856 162.935 54.044 163.573 54.6818C164.211 55.3197 164.569 56.1848 164.569 57.0868C164.569 57.9889 164.211 58.854 163.573 59.4918C162.935 60.1297 162.07 60.488 161.168 60.488Z" fill="#E6E6E6"/>
<path d="M136.722 46.033H129.495C128.593 46.033 127.728 45.6747 127.09 45.0368C126.452 44.399 126.094 43.5339 126.094 42.6318C126.094 41.7298 126.452 40.8647 127.09 40.2268C127.728 39.589 128.593 39.2307 129.495 39.2307H136.722C137.624 39.2307 138.489 39.589 139.127 40.2268C139.765 40.8647 140.123 41.7298 140.123 42.6318C140.123 43.5339 139.765 44.399 139.127 45.0368C138.489 45.6747 137.624 46.033 136.722 46.033Z" fill="#E6E6E6"/>
<path d="M197.011 160.778H144.106C142.19 160.776 140.353 160.014 138.998 158.659C137.643 157.304 136.881 155.467 136.879 153.55V69.8645C136.881 67.9483 137.643 66.1112 138.998 64.7563C140.353 63.4013 142.19 62.6392 144.106 62.637H228.615C230.531 62.6392 232.368 63.4013 233.723 64.7563C235.078 66.1112 235.84 67.9483 235.842 69.8645V90.6064H234.992V69.8645C234.99 68.1737 234.317 66.5528 233.122 65.3572C231.926 64.1617 230.305 63.4892 228.615 63.4873H144.106C142.416 63.4892 140.795 64.1617 139.599 65.3572C138.404 66.5528 137.731 68.1737 137.729 69.8645V153.55C137.731 155.241 138.404 156.862 139.599 158.058C140.795 159.253 142.416 159.926 144.106 159.928H197.011V160.778Z" fill="#CCCCCC"/>
<path d="M137.304 110.68H98.7393C96.8231 110.678 94.986 109.916 93.631 108.561C92.2761 107.206 91.5139 105.369 91.5117 103.453V35.4043C91.5139 33.4881 92.2761 31.651 93.631 30.2961C94.986 28.9411 96.8231 28.179 98.7393 28.1768H167.478C169.394 28.179 171.231 28.9411 172.586 30.2961C173.941 31.651 174.703 33.4881 174.705 35.4043V63.0621H173.855V35.4043C173.853 33.7136 173.18 32.0926 171.985 30.8971C170.789 29.7015 169.168 29.029 167.478 29.0271H98.7393C97.0485 29.029 95.4275 29.7015 94.232 30.8971C93.0365 32.0926 92.364 33.7136 92.362 35.4043V103.453C92.364 105.144 93.0365 106.765 94.232 107.96C95.4275 109.156 97.0485 109.828 98.7393 109.83H137.304V110.68Z" fill="#CCCCCC"/>
<path d="M309.439 92.3741C310.319 92.954 311.042 93.7436 311.542 94.6719C312.042 95.6002 312.304 96.6382 312.304 97.6927V99.1764H355.057C355.959 99.1764 356.824 98.8181 357.462 98.1802C358.1 97.5424 358.458 96.6773 358.458 95.7752C358.458 94.8732 358.1 94.0081 357.462 93.3702C356.824 92.7324 355.959 92.3741 355.057 92.3741H309.439Z" fill="#E6E6E6"/>
<path d="M312.753 81.3202C312.754 80.4185 313.112 79.554 313.75 78.9164C314.388 78.2787 315.252 77.9201 316.154 77.919H330.609C331.511 77.919 332.376 78.2774 333.014 78.9152C333.652 79.5531 334.01 80.4182 334.01 81.3202C334.01 82.2223 333.652 83.0874 333.014 83.7252C332.376 84.3631 331.511 84.7214 330.609 84.7214H316.154C315.252 84.7204 314.388 84.3617 313.75 83.7241C313.112 83.0865 312.754 82.2219 312.753 81.3202Z" fill="#E6E6E6"/>
<path d="M345.172 57.0868C345.173 56.1851 345.532 55.3206 346.17 54.683C346.807 54.0453 347.672 53.6867 348.574 53.6856H404.693C405.595 53.6856 406.46 54.044 407.098 54.6818C407.736 55.3197 408.094 56.1848 408.094 57.0868C408.094 57.9889 407.736 58.854 407.098 59.4918C406.46 60.1297 405.595 60.488 404.693 60.488H348.574C347.672 60.487 346.807 60.1283 346.17 59.4907C345.532 58.8531 345.173 57.9885 345.172 57.0868Z" fill="#E6E6E6"/>
<path d="M369.618 42.6318C369.619 41.7301 369.978 40.8656 370.616 40.228C371.253 39.5904 372.118 39.2317 373.02 39.2307H380.247C381.149 39.2307 382.014 39.589 382.652 40.2268C383.29 40.8647 383.648 41.7298 383.648 42.6318C383.648 43.5339 383.29 44.399 382.652 45.0368C382.014 45.6747 381.149 46.033 380.247 46.033H373.02C372.118 46.032 371.253 45.6733 370.616 45.0357C369.978 44.3981 369.619 43.5336 369.618 42.6318Z" fill="#E6E6E6"/>
<path d="M312.731 160.778H365.635C367.552 160.776 369.389 160.014 370.744 158.659C372.099 157.304 372.861 155.467 372.863 153.55V69.8645C372.861 67.9483 372.099 66.1112 370.744 64.7563C369.389 63.4013 367.552 62.6392 365.635 62.637H281.127C279.211 62.6392 277.374 63.4013 276.019 64.7563C274.664 66.1112 273.902 67.9483 273.9 69.8645V90.6064H274.75V69.8645C274.752 68.1737 275.425 66.5528 276.62 65.3572C277.816 64.1617 279.437 63.4892 281.127 63.4873H365.635C367.326 63.4892 368.947 64.1617 370.143 65.3572C371.338 66.5528 372.011 68.1737 372.013 69.8645V153.55C372.011 155.241 371.338 156.862 370.143 158.058C368.947 159.253 367.326 159.926 365.635 159.928H312.731V160.778Z" fill="#CCCCCC"/>
<path d="M372.438 110.68H411.003C412.919 110.678 414.756 109.916 416.111 108.561C417.466 107.206 418.228 105.369 418.23 103.453V35.4043C418.228 33.4881 417.466 31.651 416.111 30.2961C414.756 28.9411 412.919 28.179 411.003 28.1768H342.264C340.348 28.179 338.511 28.9411 337.156 30.2961C335.801 31.651 335.039 33.4881 335.037 35.4043V63.0621H335.887V35.4043C335.889 33.7136 336.561 32.0926 337.757 30.8971C338.952 29.7015 340.573 29.029 342.264 29.0271H411.003C412.693 29.029 414.314 29.7015 415.51 30.8971C416.705 32.0926 417.378 33.7136 417.38 35.4043V103.453C417.378 105.144 416.705 106.765 415.51 107.96C414.314 109.156 412.693 109.828 411.003 109.83H372.438V110.68Z" fill="#CCCCCC"/>
<path d="M305.748 90.4651H203.815C201.899 90.469 200.063 91.2316 198.709 92.5862C197.354 93.9408 196.591 95.777 196.588 97.6927V198.661C196.59 200.577 197.352 202.414 198.707 203.769C200.062 205.124 201.899 205.886 203.815 205.888H305.748C307.665 205.886 309.502 205.124 310.857 203.769C312.212 202.414 312.974 200.577 312.976 198.661V97.6927C312.974 95.7764 312.212 93.9392 310.857 92.5843C309.502 91.2293 307.665 90.4672 305.748 90.4651ZM312.125 198.661C312.123 200.352 311.451 201.972 310.255 203.168C309.06 204.364 307.439 205.036 305.748 205.038H203.815C202.124 205.036 200.503 204.364 199.308 203.168C198.112 201.972 197.44 200.352 197.438 198.661V97.6927C197.44 96.0021 198.113 94.3816 199.309 93.1862C200.504 91.9908 202.125 91.3181 203.815 91.3154H305.748C307.439 91.3175 309.06 91.99 310.255 93.1856C311.451 94.3811 312.123 96.0019 312.125 97.6927V198.661Z" fill="#3F3D56"/>
<path d="M297.721 129.787H211.841C210.939 129.787 210.074 129.429 209.436 128.791C208.799 128.153 208.44 127.288 208.44 126.386C208.44 125.484 208.799 124.619 209.436 123.981C210.074 123.343 210.939 122.985 211.841 122.985H297.721C298.623 122.985 299.488 123.343 300.126 123.981C300.764 124.619 301.122 125.484 301.122 126.386C301.122 127.288 300.764 128.153 300.126 128.791C299.488 129.429 298.623 129.787 297.721 129.787Z" fill="#CCCCCC"/>
<path d="M273.275 115.332H236.287C235.385 115.332 234.52 114.974 233.882 114.336C233.245 113.698 232.886 112.833 232.886 111.931C232.886 111.029 233.245 110.164 233.882 109.526C234.52 108.888 235.385 108.53 236.287 108.53H273.275C274.177 108.53 275.042 108.888 275.68 109.526C276.318 110.164 276.676 111.029 276.676 111.931C276.676 112.833 276.318 113.698 275.68 114.336C275.042 114.974 274.177 115.332 273.275 115.332Z" fill="#356BFC"/>
<path d="M248.617 150.194H211.629C210.727 150.194 209.862 149.836 209.224 149.198C208.586 148.56 208.228 147.695 208.228 146.793C208.228 145.891 208.586 145.026 209.224 144.388C209.862 143.75 210.727 143.392 211.629 143.392H248.617C249.519 143.392 250.384 143.75 251.022 144.388C251.66 145.026 252.018 145.891 252.018 146.793C252.018 147.695 251.66 148.56 251.022 149.198C250.384 149.836 249.519 150.194 248.617 150.194Z" fill="#CCCCCC"/>
<path d="M248.617 165.074H211.629C210.727 165.074 209.862 164.716 209.224 164.078C208.586 163.44 208.228 162.575 208.228 161.673C208.228 160.771 208.586 159.906 209.224 159.268C209.862 158.63 210.727 158.272 211.629 158.272H248.617C249.519 158.272 250.384 158.63 251.022 159.268C251.66 159.906 252.018 160.771 252.018 161.673C252.018 162.575 251.66 163.44 251.022 164.078C250.384 164.716 249.519 165.074 248.617 165.074Z" fill="#CCCCCC"/>
<path d="M248.617 179.954H211.629C210.727 179.954 209.862 179.596 209.224 178.958C208.586 178.32 208.228 177.455 208.228 176.553C208.228 175.651 208.586 174.786 209.224 174.148C209.862 173.51 210.727 173.152 211.629 173.152H248.617C249.519 173.152 250.384 173.51 251.022 174.148C251.66 174.786 252.018 175.651 252.018 176.553C252.018 177.455 251.66 178.32 251.022 178.958C250.384 179.596 249.519 179.954 248.617 179.954Z" fill="#CCCCCC"/>
<path d="M294.748 153.11C298.253 153.11 301.095 150.268 301.095 146.763C301.095 143.257 298.253 140.416 294.748 140.416C291.242 140.416 288.401 143.257 288.401 146.763C288.401 150.268 291.242 153.11 294.748 153.11Z" fill="#356BFC"/>
<path d="M294.119 149.184C293.976 149.184 293.837 149.138 293.723 149.052L293.716 149.047L292.224 147.906C292.085 147.799 291.993 147.641 291.97 147.467C291.947 147.292 291.994 147.116 292.101 146.977C292.208 146.837 292.366 146.746 292.541 146.723C292.715 146.7 292.891 146.747 293.031 146.854L293.997 147.595L296.28 144.616C296.333 144.547 296.399 144.489 296.474 144.446C296.55 144.402 296.633 144.374 296.719 144.362C296.805 144.351 296.893 144.357 296.977 144.379C297.061 144.402 297.14 144.441 297.209 144.494L297.195 144.513L297.21 144.494C297.349 144.601 297.44 144.759 297.463 144.933C297.486 145.107 297.439 145.283 297.332 145.423L294.647 148.925C294.585 149.005 294.505 149.071 294.413 149.116C294.322 149.16 294.221 149.183 294.119 149.183L294.119 149.184Z" fill="white"/>
<path d="M133.108 19.7307C131.157 19.7307 129.25 19.1521 127.628 18.0681C126.005 16.9841 124.741 15.4433 123.994 13.6407C123.247 11.838 123.052 9.85439 123.433 7.9407C123.813 6.02701 124.753 4.26918 126.133 2.88949C127.512 1.5098 129.27 0.570215 131.184 0.189562C133.098 -0.191092 135.081 0.00427575 136.884 0.750964C138.687 1.49765 140.227 2.76212 141.311 4.38447C142.395 6.00682 142.974 7.91419 142.974 9.86537C142.971 12.4809 141.931 14.9885 140.081 16.838C138.232 18.6875 135.724 19.7278 133.108 19.7307ZM133.108 0.850299C131.325 0.85031 129.582 1.37904 128.1 2.36964C126.617 3.36023 125.462 4.7682 124.78 6.41549C124.097 8.06278 123.919 9.87541 124.267 11.6242C124.615 13.3729 125.473 14.9792 126.734 16.24C127.995 17.5008 129.601 18.3594 131.35 18.7072C133.099 19.0551 134.911 18.8765 136.558 18.1942C138.206 17.5119 139.614 16.3564 140.604 14.8739C141.595 13.3914 142.124 11.6484 142.124 9.86537C142.121 7.47525 141.17 5.18379 139.48 3.49372C137.79 1.80365 135.499 0.85299 133.108 0.850299Z" fill="#CCCCCC"/>
<path d="M132.173 13.4665C131.961 13.4669 131.754 13.3982 131.584 13.2708L131.573 13.2629L129.355 11.5657C129.252 11.4869 129.166 11.3887 129.101 11.2766C129.036 11.1645 128.994 11.0407 128.977 10.9124C128.96 10.784 128.969 10.6536 129.002 10.5285C129.036 10.4034 129.093 10.2862 129.172 10.1834C129.251 10.0807 129.349 9.99443 129.461 9.92964C129.573 9.86486 129.697 9.82278 129.826 9.80583C129.954 9.78887 130.084 9.79737 130.209 9.83082C130.335 9.86428 130.452 9.92205 130.555 10.0008L131.992 11.1028L135.387 6.67264C135.466 6.56993 135.564 6.48374 135.676 6.41898C135.788 6.35422 135.912 6.31216 136.04 6.29521C136.169 6.27827 136.299 6.28676 136.424 6.3202C136.549 6.35365 136.666 6.41139 136.769 6.49014L136.748 6.51962L136.77 6.49035C136.977 6.64961 137.113 6.88456 137.147 7.14366C137.181 7.40275 137.111 7.66482 136.952 7.87236L132.958 13.0809C132.866 13.2009 132.747 13.298 132.611 13.3647C132.475 13.4313 132.325 13.4658 132.174 13.4654L132.173 13.4665Z" fill="#CCCCCC"/>
<path d="M195.688 54.1677C193.737 54.1676 191.83 53.589 190.207 52.505C188.585 51.421 187.321 49.8802 186.574 48.0775C185.827 46.2749 185.632 44.2913 186.013 42.3776C186.393 40.4639 187.333 38.7061 188.713 37.3264C190.092 35.9467 191.85 35.0071 193.764 34.6265C195.678 34.2458 197.661 34.4412 199.464 35.1879C201.266 35.9346 202.807 37.1991 203.891 38.8214C204.975 40.4438 205.554 42.3511 205.554 44.3023C205.551 46.9179 204.511 49.4255 202.661 51.2749C200.812 53.1244 198.304 54.1647 195.688 54.1677ZM195.688 35.2872C193.905 35.2872 192.162 35.816 190.68 36.8066C189.197 37.7972 188.042 39.2052 187.36 40.8524C186.677 42.4997 186.499 44.3124 186.847 46.0611C187.194 47.8099 188.053 49.4162 189.314 50.677C190.575 51.9377 192.181 52.7963 193.93 53.1442C195.678 53.492 197.491 53.3135 199.138 52.6311C200.786 51.9488 202.194 50.7933 203.184 49.3108C204.175 47.8283 204.704 46.0853 204.704 44.3023C204.701 41.9122 203.75 39.6207 202.06 37.9306C200.37 36.2405 198.079 35.2899 195.688 35.2872Z" fill="#CCCCCC"/>
<path d="M194.753 47.9035C194.541 47.9038 194.334 47.8351 194.164 47.7077L194.153 47.6998L191.935 46.0027C191.727 45.8436 191.591 45.6085 191.557 45.3493C191.523 45.0901 191.593 44.8279 191.752 44.6203C191.911 44.4128 192.146 44.277 192.406 44.2428C192.665 44.2085 192.927 44.2787 193.134 44.4378L194.572 45.5397L197.967 41.1096C198.046 41.0069 198.144 40.9207 198.256 40.8559C198.368 40.7912 198.492 40.7491 198.62 40.7321C198.749 40.7152 198.879 40.7237 199.004 40.7571C199.129 40.7906 199.246 40.8483 199.349 40.9271L199.328 40.9565L199.35 40.9273C199.557 41.0865 199.693 41.3215 199.727 41.5806C199.761 41.8397 199.691 42.1018 199.532 42.3093L195.538 47.5178C195.446 47.6378 195.327 47.7349 195.191 47.8016C195.055 47.8683 194.905 47.9027 194.754 47.9023L194.753 47.9035Z" fill="#CCCCCC"/>
<path d="M294.748 167.99C298.253 167.99 301.095 165.148 301.095 161.643C301.095 158.138 298.253 155.296 294.748 155.296C291.242 155.296 288.401 158.138 288.401 161.643C288.401 165.148 291.242 167.99 294.748 167.99Z" fill="#356BFC"/>
<path d="M294.119 164.064C293.976 164.064 293.837 164.018 293.723 163.933L293.716 163.927L292.224 162.786C292.155 162.733 292.097 162.667 292.053 162.592C292.01 162.516 291.982 162.433 291.97 162.347C291.959 162.261 291.964 162.173 291.987 162.089C292.009 162.005 292.048 161.926 292.101 161.857C292.154 161.788 292.22 161.73 292.296 161.686C292.371 161.643 292.454 161.614 292.541 161.603C292.627 161.592 292.715 161.597 292.799 161.62C292.883 161.642 292.962 161.681 293.031 161.734L293.997 162.475L296.28 159.496C296.333 159.427 296.399 159.369 296.474 159.326C296.55 159.282 296.633 159.254 296.719 159.243C296.805 159.231 296.893 159.237 296.977 159.259C297.061 159.282 297.14 159.321 297.209 159.374L297.195 159.393L297.21 159.374C297.349 159.481 297.44 159.639 297.463 159.813C297.486 159.987 297.439 160.163 297.332 160.303L294.647 163.805C294.585 163.886 294.505 163.951 294.413 163.996C294.322 164.04 294.221 164.064 294.119 164.063L294.119 164.064Z" fill="white"/>
<path d="M294.748 182.9C298.253 182.9 301.095 180.059 301.095 176.553C301.095 173.048 298.253 170.206 294.748 170.206C291.242 170.206 288.401 173.048 288.401 176.553C288.401 180.059 291.242 182.9 294.748 182.9Z" fill="#356BFC"/>
<path d="M294.119 178.974C293.976 178.975 293.837 178.928 293.723 178.843L293.716 178.838L292.224 177.696C292.085 177.589 291.994 177.431 291.971 177.257C291.948 177.083 291.995 176.907 292.102 176.768C292.209 176.628 292.367 176.537 292.541 176.514C292.715 176.491 292.891 176.538 293.031 176.644L293.997 177.385L296.28 174.407C296.333 174.338 296.399 174.28 296.474 174.236C296.55 174.193 296.633 174.164 296.719 174.153C296.805 174.141 296.893 174.147 296.977 174.17C297.061 174.192 297.14 174.231 297.209 174.284L297.195 174.304L297.21 174.284C297.349 174.391 297.44 174.549 297.463 174.723C297.486 174.898 297.439 175.074 297.332 175.213L294.647 178.715C294.585 178.796 294.505 178.861 294.413 178.906C294.322 178.951 294.221 178.974 294.119 178.974L294.119 178.974Z" fill="white"/>
<path d="M254.791 81.8022C248.095 81.6881 245.052 76.6079 245.052 71.936C245.053 67.2642 248.096 62.1846 254.777 62.0715H254.791C261.473 62.1855 264.516 67.2656 264.515 71.9375C264.515 76.6093 261.472 81.6891 254.791 81.8022ZM254.784 62.9218C248.682 63.0285 245.903 67.6686 245.903 71.936C245.902 76.2054 248.684 80.8477 254.791 80.9519C260.883 80.8486 263.665 76.2066 263.665 71.9375C263.665 67.67 260.886 63.03 254.784 62.9218Z" fill="#356BFC"/>
<path d="M256.998 72.4726C258.705 75.4374 254.02 76.5952 252.228 74.8093L252.677 73.85C255.591 76.367 258.158 72.0072 253.707 72.4216V71.3705C257.783 71.6992 255.494 67.5967 252.779 70.0237L252.34 69.0646C254.553 66.7681 259.52 69.545 256.013 71.8399C256.405 71.9314 256.752 72.1549 256.998 72.4726Z" fill="#356BFC"/>
<path d="M314.73 54.1677C312.778 54.1676 310.871 53.589 309.249 52.505C307.626 51.421 306.362 49.8802 305.615 48.0775C304.869 46.2749 304.673 44.2913 305.054 42.3776C305.435 40.4639 306.374 38.7061 307.754 37.3264C309.134 35.9467 310.891 35.0071 312.805 34.6265C314.719 34.2458 316.702 34.4412 318.505 35.1879C320.308 35.9346 321.848 37.1991 322.932 38.8214C324.017 40.4438 324.595 42.3511 324.595 44.3023C324.592 46.9179 323.552 49.4255 321.702 51.2749C319.853 53.1244 317.345 54.1647 314.73 54.1677ZM314.73 35.2872C312.947 35.2872 311.204 35.816 309.721 36.8066C308.239 37.7972 307.083 39.2052 306.401 40.8524C305.719 42.4997 305.54 44.3124 305.888 46.0611C306.236 47.8099 307.094 49.4162 308.355 50.677C309.616 51.9377 311.222 52.7963 312.971 53.1442C314.72 53.492 316.532 53.3135 318.18 52.6311C319.827 51.9488 321.235 50.7933 322.225 49.3108C323.216 47.8283 323.745 46.0853 323.745 44.3023C323.742 41.9122 322.791 39.6207 321.101 37.9306C319.411 36.2405 317.12 35.2899 314.73 35.2872Z" fill="#CCCCCC"/>
<path d="M317.469 46.5165H316.439V47.9347H315.153V46.5165H311.99V45.5368L315.388 40.6699H316.439V45.486H317.469V46.5165ZM315.153 45.486V42.7207L313.235 45.486H315.153Z" fill="#CCCCCC"/>
<path d="M376.633 19.7307C374.682 19.7307 372.775 19.1521 371.153 18.0681C369.53 16.984 368.266 15.4433 367.519 13.6406C366.772 11.838 366.577 9.85436 366.958 7.94067C367.338 6.02699 368.278 4.26916 369.658 2.88947C371.037 1.50978 372.795 0.570206 374.709 0.189557C376.623 -0.191092 378.606 0.00428208 380.409 0.750972C382.211 1.49766 383.752 2.76213 384.836 4.38448C385.92 6.00683 386.499 7.9142 386.499 9.86538C386.496 12.4809 385.456 14.9885 383.606 16.838C381.757 18.6875 379.249 19.7278 376.633 19.7307ZM376.633 0.850301C374.85 0.850322 373.107 1.37906 371.625 2.36967C370.142 3.36027 368.987 4.76824 368.305 6.41553C367.622 8.06282 367.444 9.87545 367.792 11.6242C368.14 13.3729 368.998 14.9793 370.259 16.24C371.52 17.5008 373.126 18.3594 374.875 18.7072C376.624 19.0551 378.436 18.8765 380.083 18.1942C381.731 17.5119 383.139 16.3564 384.129 14.8739C385.12 13.3914 385.649 11.6484 385.649 9.86538C385.646 7.47524 384.695 5.18378 383.005 3.49371C381.315 1.80363 379.024 0.852979 376.633 0.850301Z" fill="#CCCCCC"/>
<path d="M378.103 9.10524C378.444 9.29398 378.724 9.57743 378.909 9.92149C379.105 10.2939 379.203 10.7099 379.194 11.1305C379.203 11.5726 379.09 12.0087 378.868 12.3908C378.645 12.7593 378.319 13.0539 377.929 13.2376C377.486 13.4459 377.001 13.5489 376.511 13.5386C376.052 13.5382 375.597 13.4605 375.164 13.309C374.762 13.1791 374.391 12.9691 374.072 12.6918L374.511 11.7325C375.081 12.2032 375.792 12.4691 376.531 12.4877C376.911 12.5138 377.286 12.3912 377.577 12.1458C377.813 11.8772 377.941 11.5317 377.939 11.1746C377.938 10.8174 377.805 10.4733 377.567 10.2071C377.434 10.0836 377.277 9.98796 377.106 9.92576C376.935 9.86357 376.754 9.83608 376.572 9.84492C376.296 9.84312 376.021 9.89691 375.766 10.0031C375.514 10.1085 375.288 10.2668 375.103 10.4673H374.307V6.19211H378.858V7.21242H375.593V9.19181C375.979 8.93468 376.435 8.80289 376.899 8.8144C377.318 8.80558 377.733 8.90579 378.103 9.10524Z" fill="#CCCCCC"/>
<path d="M145.004 221.438C144.746 220.869 144.616 220.25 144.623 219.625C144.63 219 144.774 218.384 145.045 217.821C145.316 217.258 145.707 216.76 146.19 216.365C146.674 215.969 147.239 215.684 147.844 215.53L149.133 200.392L155.332 205.282L153.157 218.907C153.349 219.942 153.154 221.011 152.61 221.911C152.066 222.812 151.21 223.482 150.205 223.794C149.2 224.106 148.116 224.038 147.157 223.604C146.199 223.17 145.433 222.399 145.004 221.438Z" fill="#FFB8B8"/>
<path d="M148.991 213.941C148.545 213.882 148.134 213.667 147.83 213.335C147.527 213.003 147.35 212.575 147.331 212.125L146.614 194.946C146.356 188.772 147.612 182.628 150.274 177.051L156.638 163.716C157.064 162.914 157.675 162.225 158.421 161.707C159.167 161.189 160.026 160.856 160.926 160.736C161.8 160.613 162.691 160.703 163.522 160.998C164.354 161.294 165.102 161.785 165.702 162.432C166.007 162.758 166.281 163.111 166.52 163.487C167 164.266 167.278 165.152 167.329 166.066C167.379 166.979 167.201 167.891 166.81 168.718L157.052 195.375L156.302 212.741C156.29 213.004 156.225 213.262 156.109 213.499C155.993 213.735 155.83 213.946 155.629 214.116C155.429 214.287 155.195 214.414 154.943 214.49C154.69 214.566 154.425 214.589 154.164 214.558L149.016 213.944L148.991 213.941Z" fill="#356BFC"/>
<path d="M130.735 288.999L135.507 291.094L145.859 273.682L138.815 270.59L130.735 288.999Z" fill="#FFB8B8"/>
<path d="M130.201 286.906L139.6 291.032C140.387 291.377 141.098 291.874 141.693 292.494C142.287 293.114 142.754 293.846 143.066 294.646C143.378 295.446 143.529 296.3 143.511 297.159C143.493 298.018 143.306 298.865 142.961 299.651L142.876 299.846L127.487 293.091L130.201 286.906Z" fill="#2F2E41"/>
<path d="M194.809 294.793H200.022L202.501 274.689L194.809 274.689L194.809 294.793Z" fill="#FFB8B8"/>
<path d="M193.48 293.092L203.745 293.091C204.604 293.091 205.455 293.261 206.248 293.589C207.042 293.918 207.763 294.4 208.371 295.007C208.978 295.615 209.46 296.336 209.789 297.13C210.117 297.923 210.287 298.774 210.287 299.633V299.845L193.48 299.846L193.48 293.092Z" fill="#2F2E41"/>
<path d="M142.311 289.078C142.111 289.077 141.912 289.046 141.721 288.984L132.883 286.144C132.406 285.988 132.008 285.652 131.776 285.207C131.543 284.762 131.494 284.244 131.639 283.763L160.947 190.436L182.899 186.132L182.976 186.258C197.489 209.874 202.334 245.949 205.407 284.172C205.445 284.671 205.287 285.166 204.966 285.55C204.645 285.934 204.187 286.178 203.69 286.231L194.028 287.197C193.577 287.244 193.124 287.129 192.75 286.872C192.377 286.615 192.108 286.233 191.991 285.795L174.3 223.21C174.265 223.083 174.192 222.969 174.089 222.885C173.987 222.801 173.862 222.751 173.73 222.741C173.598 222.732 173.466 222.764 173.353 222.833C173.24 222.901 173.151 223.004 173.099 223.125L144.063 287.921C143.917 288.264 143.672 288.556 143.361 288.762C143.05 288.968 142.685 289.078 142.311 289.078Z" fill="#2F2E41"/>
<path d="M172.289 153.066C178.056 153.066 182.731 148.391 182.731 142.624C182.731 136.857 178.056 132.182 172.289 132.182C166.522 132.182 161.847 136.857 161.847 142.624C161.847 148.391 166.522 153.066 172.289 153.066Z" fill="#FFB8B8"/>
<path d="M159.079 193.2L159.008 193.05C158.959 192.949 154.148 182.743 154.596 170.971C154.744 167.107 156.363 163.445 159.122 160.736C161.881 158.026 165.571 156.474 169.437 156.395C173 156.325 176.473 157.515 179.245 159.755C182.017 161.995 183.91 165.141 184.59 168.639C185.931 175.483 185.897 181.966 184.49 187.906L184.459 188.038L184.326 188.065L159.079 193.2Z" fill="#356BFC"/>
<path d="M212.318 207.931C211.7 207.839 211.109 207.614 210.587 207.269C210.066 206.925 209.626 206.47 209.299 205.938C208.972 205.405 208.766 204.807 208.695 204.186C208.624 203.565 208.691 202.936 208.889 202.343L196.862 193.061L204.329 190.499L214.606 199.706C215.579 200.106 216.372 200.849 216.835 201.794C217.297 202.739 217.397 203.821 217.115 204.835C216.833 205.849 216.189 206.724 215.305 207.294C214.421 207.865 213.358 208.091 212.318 207.931Z" fill="#FFB8B8"/>
<path d="M182.803 187.468L182.775 187.423L170.096 166.889C169.652 166.096 169.405 165.209 169.373 164.302C169.341 163.394 169.526 162.492 169.913 161.67C170.283 160.869 170.841 160.169 171.54 159.629C172.238 159.09 173.057 158.728 173.926 158.573C174.365 158.493 174.81 158.455 175.255 158.458C176.17 158.476 177.066 158.722 177.861 159.174C178.657 159.626 179.326 160.27 179.81 161.047L196.934 183.687L211.126 193.724C211.341 193.876 211.522 194.071 211.658 194.296C211.795 194.521 211.883 194.772 211.917 195.034C211.952 195.295 211.933 195.56 211.86 195.813C211.787 196.066 211.663 196.302 211.495 196.505L208.191 200.5C207.902 200.851 207.498 201.088 207.05 201.167C206.602 201.246 206.14 201.162 205.749 200.931L182.803 187.468Z" fill="#356BFC"/>
<path d="M170.421 141.976C171.191 140.71 172.889 140.352 174.364 140.497C175.838 140.641 177.272 141.159 178.754 141.148C182.868 141.116 186.043 136.102 184.313 132.37C182.895 129.308 179.352 127.964 176.148 126.909C169.429 124.697 161.71 122.572 155.613 126.158C153.67 127.335 152.077 129.009 150.997 131.008C149.917 133.007 149.391 135.257 149.472 137.527C149.609 140.35 150.69 143.249 149.776 145.923C148.721 149.008 145.377 150.663 142.217 151.464C136.677 152.867 130.836 152.641 125.261 153.9C119.687 155.159 113.974 158.501 112.472 164.015C111.485 167.637 112.514 171.536 114.22 174.88C115.96 178.291 118.378 181.312 121.327 183.756C124.275 186.201 127.691 188.018 131.366 189.096C135.041 190.174 138.898 190.49 142.699 190.025C146.501 189.561 150.168 188.325 153.475 186.394C160.214 182.459 165.08 175.808 167.981 168.563C169.625 164.337 170.783 159.937 171.432 155.449C172.081 151.247 171.53 147.001 170.354 142.916C170.298 142.763 170.275 142.601 170.287 142.439C170.299 142.277 170.344 142.119 170.421 141.976Z" fill="#2F2E41"/>
<path d="M244.406 300H82.4251C82.3124 300 82.2043 299.955 82.1245 299.875C82.0448 299.796 82 299.688 82 299.575C82 299.462 82.0448 299.354 82.1245 299.274C82.2043 299.195 82.3124 299.15 82.4251 299.15H244.406C244.519 299.15 244.627 299.195 244.707 299.274C244.787 299.354 244.831 299.462 244.831 299.575C244.831 299.688 244.787 299.796 244.707 299.875C244.627 299.955 244.519 300 244.406 300Z" fill="#3F3D56"/>
</g>
<defs>
<clipPath id="clip0_1_109">
<rect width="336.23" height="300" fill="white" transform="translate(82)"/>
</clipPath>
</defs>
</svg>
