<svg width="500" height="300" viewBox="0 0 500 300" fill="none" xmlns="http://www.w3.org/2000/svg">
<rect width="500" height="300" fill="white"/>
<g clip-path="url(#clip0_1_30)">
<path d="M52.0674 299.338C52.0674 299.705 52.3622 300 52.7293 300H458.326C458.693 300 458.988 299.705 458.988 299.338C458.988 298.971 458.693 298.676 458.326 298.676H52.7293C52.3622 298.676 52.0674 298.971 52.0674 299.338Z" fill="#3F3D58"/>
<path d="M181.946 52.9179H51.8617C46.9008 52.9179 42.8631 48.8803 42.8631 43.9194C42.8631 38.9585 46.9008 34.9208 51.8617 34.9208H181.946C186.907 34.9208 190.944 38.9585 190.944 43.9194C190.944 48.8803 186.907 52.9179 181.946 52.9179ZM51.8617 36.0331C47.5126 36.0331 43.9754 39.5703 43.9754 43.9194C43.9754 48.2685 47.5126 51.8056 51.8617 51.8056H181.946C186.295 51.8056 189.832 48.2685 189.832 43.9194C189.832 39.5703 186.295 36.0331 181.946 36.0331H51.8617Z" fill="#E2E3E4"/>
<path d="M181.946 158.226H51.8617C47.0509 158.226 43.1412 154.316 43.1412 149.505C43.1412 144.694 47.0509 140.785 51.8617 140.785H181.946C186.757 140.785 190.666 144.694 190.666 149.505C190.666 154.316 186.757 158.226 181.946 158.226Z" fill="#356BFC"/>
<path d="M139.317 17.441H49.7205C44.9098 17.441 41 13.5312 41 8.72048C41 3.90976 44.9098 0 49.7205 0H139.317C144.127 0 148.037 3.90976 148.037 8.72048C148.037 13.5312 144.127 17.441 139.317 17.441Z" fill="#E2E3E4"/>
<path d="M181.946 88.1113H51.8617C46.9008 88.1113 42.8631 84.0736 42.8631 79.1128C42.8631 74.1519 46.9008 70.1142 51.8617 70.1142H181.946C186.907 70.1142 190.944 74.1519 190.944 79.1128C190.944 84.0736 186.907 88.1113 181.946 88.1113ZM51.8617 71.2265C47.5126 71.2265 43.9754 74.7636 43.9754 79.1128C43.9754 83.4619 47.5126 86.999 51.8617 86.999H181.946C186.295 86.999 189.832 83.4619 189.832 79.1128C189.832 74.7636 186.295 71.2265 181.946 71.2265H51.8617Z" fill="#E2E3E4"/>
<path d="M181.946 123.31H51.8617C46.9008 123.31 42.8631 119.273 42.8631 114.312C42.8631 109.351 46.9008 105.313 51.8617 105.313H181.946C186.907 105.313 190.944 109.351 190.944 114.312C190.944 119.273 186.907 123.31 181.946 123.31ZM51.8617 106.425C47.5126 106.425 43.9754 109.963 43.9754 114.312C43.9754 118.661 47.5126 122.198 51.8617 122.198H181.946C186.295 122.198 189.832 118.661 189.832 114.312C189.832 109.963 186.295 106.425 181.946 106.425H51.8617Z" fill="#E2E3E4"/>
<path d="M47.3902 28.4583H81.4824C82.2944 28.4583 82.9562 29.1146 82.9562 29.9321C82.9562 30.7441 82.2944 31.406 81.4824 31.406H47.3902C46.5782 31.406 45.9164 30.7497 45.9164 29.9321C45.9164 29.1202 46.5782 28.4583 47.3902 28.4583Z" fill="#E2E3E4"/>
<path d="M47.3902 64.4859H81.4824C82.2944 64.4859 82.9562 65.1422 82.9562 65.9542C82.9562 66.7662 82.2944 67.428 81.4824 67.428H47.3902C46.5782 67.428 45.9164 66.7717 45.9164 65.9597C45.9164 65.1478 46.5782 64.4859 47.3902 64.4859Z" fill="#E2E3E4"/>
<path d="M47.3902 100.519H81.4824C82.2944 100.519 82.9562 101.175 82.9562 101.993C82.9562 102.805 82.2944 103.461 81.4824 103.461H47.3902C46.5782 103.461 45.9164 102.805 45.9164 101.987C45.9164 101.175 46.5782 100.519 47.3902 100.519Z" fill="#E2E3E4"/>
<path d="M289.645 73.5568L277.209 77.6501V59.7475H288.494L289.645 73.5568Z" fill="#9F616A"/>
<path d="M278.75 64.7028C285.593 64.7028 291.141 59.1551 291.141 52.3117C291.141 45.4683 285.593 39.9207 278.75 39.9207C271.906 39.9207 266.359 45.4683 266.359 52.3117C266.359 59.1551 271.906 64.7028 278.75 64.7028Z" fill="#9F616A"/>
<path d="M282.153 51.0826C280.079 51.0215 278.716 48.9248 277.91 47.0116C277.104 45.0984 276.275 42.9016 274.351 42.1119C272.777 41.4668 270.002 45.8326 268.761 44.6702C267.465 43.4578 268.728 37.2344 270.102 36.1166C271.475 34.9987 273.355 34.7818 275.124 34.6984C279.439 34.4982 283.783 34.8485 288.015 35.7328C290.635 36.2779 293.327 37.101 295.218 38.9919C297.609 41.3945 298.221 45.015 298.393 48.402C298.571 51.8668 298.371 55.4929 296.686 58.524C295.001 61.555 291.475 63.7907 288.093 63.0177C287.754 61.1824 288.099 59.297 288.232 57.4284C288.36 55.5652 288.227 53.552 287.087 52.067C285.952 50.5821 283.516 49.9926 282.192 51.3107" fill="#2F2E43"/>
<path d="M297.398 55.3761C298.638 54.4696 300.123 53.7077 301.647 53.8968C303.293 54.097 304.689 55.454 305.111 57.0613C305.534 58.6686 305.061 60.4371 304.038 61.7497C303.02 63.0622 301.502 63.9298 299.9 64.3636C298.972 64.6138 297.954 64.7195 297.069 64.3413C295.768 63.7796 295.062 62.1167 295.573 60.7931" fill="#2F2E43"/>
<path d="M249.98 171.962C249.151 176.034 250.67 179.754 253.361 180.271C256.053 180.789 258.906 177.902 259.729 173.831C260.08 172.207 260.024 170.528 259.568 168.926L269.818 105.107L256.999 102.694L252.049 167.485C250.998 168.798 250.291 170.333 249.98 171.968V171.962Z" fill="#9F616A"/>
<path d="M277.076 69.4357H268.328C262.143 70.3756 260.463 73.6736 259.056 79.769C256.91 89.0679 254.168 101.448 254.713 101.631C255.586 101.921 270.48 108.928 278.071 107.326L277.076 69.4357Z" fill="#E2E3E4"/>
<path d="M285.535 272.715H273.889V289.238H285.535V272.715Z" fill="#9F616A"/>
<path d="M262.549 299.238C261.326 299.238 260.235 299.21 259.412 299.132C256.32 298.849 253.367 296.563 251.882 295.228C251.215 294.628 251.003 293.671 251.348 292.848C251.598 292.258 252.093 291.813 252.711 291.641L260.886 289.305L274.123 280.373L274.273 280.64C274.328 280.74 275.63 283.082 276.064 284.661C276.23 285.262 276.186 285.763 275.936 286.152C275.763 286.419 275.519 286.574 275.324 286.663C275.563 286.914 276.314 287.425 278.627 287.792C282.003 288.326 282.715 284.828 282.743 284.684L282.765 284.567L282.865 284.5C284.473 283.466 285.463 282.993 285.802 283.093C286.013 283.154 286.369 283.265 287.331 292.792C287.426 293.093 288.099 295.284 287.643 297.381C287.148 299.661 277.181 298.877 275.185 298.699C275.129 298.704 267.666 299.238 262.555 299.238H262.549Z" fill="#2F2E43"/>
<path d="M318.696 259.733L308.815 265.896L317.558 279.916L327.44 273.753L318.696 259.733Z" fill="#9F616A"/>
<path d="M305.573 296.975C304.205 296.975 302.948 296.808 302.053 296.652C301.174 296.496 300.484 295.796 300.34 294.917C300.24 294.283 300.423 293.643 300.857 293.17L306.557 286.864L313.064 272.281L313.331 272.426C313.432 272.482 315.773 273.777 316.98 274.89C317.441 275.312 317.669 275.763 317.658 276.224C317.653 276.547 317.53 276.803 317.408 276.986C317.742 277.075 318.648 277.109 320.806 276.197C323.954 274.867 322.708 271.519 322.653 271.38L322.608 271.269L322.658 271.164C323.476 269.434 324.06 268.511 324.404 268.416C324.621 268.355 324.977 268.26 330.834 275.841C331.073 276.041 332.802 277.548 333.525 279.567C334.309 281.764 325.439 286.374 323.654 287.275C323.598 287.32 314.316 294.066 310.501 295.985C308.988 296.747 307.197 296.98 305.568 296.98L305.573 296.975Z" fill="#2F2E43"/>
<path d="M294.111 134.539H261.504L258.545 164.872L271.492 276.947H288.138L281.481 212.217L308.482 270.657L323.275 260.302L302.192 205.743C302.192 205.743 309.722 158.214 303.805 146.374C297.887 134.539 294.111 134.539 294.111 134.539Z" fill="#2F2E43"/>
<path d="M310.334 136.385H258.545L274.084 69.4357H296.647L310.334 136.385Z" fill="#E2E3E4"/>
<path d="M314.994 171.962C315.823 176.034 314.305 179.754 311.613 180.271C308.921 180.789 306.068 177.902 305.245 173.831C304.895 172.207 304.95 170.528 305.406 168.926L295.156 105.107L307.976 102.694L312.925 167.485C313.977 168.798 314.683 170.333 314.994 171.968V171.962Z" fill="#9F616A"/>
<path d="M287.899 69.4357H296.647C302.831 70.3756 304.511 73.6736 305.918 79.769C308.065 89.0679 310.806 101.448 310.261 101.631C309.388 101.921 294.494 108.928 286.903 107.326L287.899 69.4357Z" fill="#E2E3E4"/>
</g>
<defs>
<clipPath id="clip0_1_30">
<rect width="417.988" height="300" fill="white" transform="translate(41)"/>
</clipPath>
</defs>
</svg>
