<svg width="500" height="300" viewBox="0 0 500 300" fill="none" xmlns="http://www.w3.org/2000/svg">
<rect width="500" height="300" fill="white"/>
<g clip-path="url(#clip0_1_188)">
<path d="M402.253 300H157.402C156.301 299.999 155.247 299.561 154.469 298.783C153.691 298.005 153.253 296.95 153.252 295.85V145.066C153.253 143.966 153.691 142.911 154.469 142.133C155.247 141.355 156.301 140.917 157.402 140.916H402.253C403.353 140.917 404.408 141.355 405.186 142.133C405.964 142.911 406.402 143.966 406.403 145.066V295.85C406.402 296.95 405.964 298.005 405.186 298.783C404.408 299.561 403.353 299.999 402.253 300ZM157.402 141.838C156.546 141.839 155.726 142.18 155.12 142.785C154.515 143.39 154.175 144.21 154.174 145.066V295.85C154.175 296.706 154.515 297.526 155.12 298.131C155.726 298.736 156.546 299.077 157.402 299.078H402.253C403.109 299.077 403.929 298.736 404.534 298.131C405.139 297.526 405.48 296.706 405.481 295.85V145.066C405.48 144.21 405.139 143.39 404.534 142.785C403.929 142.18 403.109 141.839 402.253 141.838H157.402Z" fill="#3F3D56"/>
<path d="M373.972 270.351H354.605C354.299 270.35 354.006 270.229 353.79 270.013C353.574 269.796 353.452 269.503 353.452 269.198V259.053C353.452 258.748 353.574 258.455 353.79 258.239C354.006 258.022 354.299 257.901 354.605 257.901H368.553C368.737 257.901 368.913 257.973 369.043 258.103C369.172 258.233 369.245 258.409 369.245 258.592C369.245 258.776 369.172 258.952 369.043 259.081C368.913 259.211 368.737 259.284 368.553 259.284H355.527C355.344 259.284 355.168 259.357 355.038 259.487C354.908 259.616 354.836 259.792 354.835 259.976V268.276C354.836 268.459 354.908 268.635 355.038 268.764C355.168 268.894 355.344 268.967 355.527 268.967H373.049C373.233 268.967 373.408 268.894 373.538 268.764C373.668 268.635 373.741 268.459 373.741 268.276V263.879C373.741 263.695 373.814 263.519 373.944 263.39C374.073 263.26 374.249 263.187 374.433 263.187C374.616 263.187 374.792 263.26 374.922 263.39C375.051 263.519 375.124 263.695 375.124 263.879V269.198C375.124 269.503 375.002 269.796 374.786 270.013C374.57 270.229 374.277 270.35 373.972 270.351Z" fill="#3F3D56"/>
<path d="M339.772 168.583H190.832C190.282 168.583 189.754 168.364 189.365 167.975C188.976 167.586 188.757 167.058 188.757 166.508C188.757 165.957 188.976 165.43 189.365 165.04C189.754 164.651 190.282 164.433 190.832 164.433H339.772C340.322 164.433 340.85 164.651 341.239 165.04C341.628 165.43 341.847 165.957 341.847 166.508C341.847 167.058 341.628 167.586 341.239 167.975C340.85 168.364 340.322 168.583 339.772 168.583Z" fill="#CCCCCC"/>
<path d="M339.772 185.644H190.832C190.282 185.644 189.754 185.425 189.365 185.036C188.976 184.647 188.757 184.119 188.757 183.569C188.757 183.019 188.976 182.491 189.365 182.102C189.754 181.713 190.282 181.494 190.832 181.494H339.772C340.322 181.494 340.85 181.713 341.239 182.102C341.628 182.491 341.847 183.019 341.847 183.569C341.847 184.119 341.628 184.647 341.239 185.036C340.85 185.425 340.322 185.644 339.772 185.644Z" fill="#CCCCCC"/>
<path d="M339.772 202.705H190.832C190.282 202.705 189.754 202.486 189.365 202.097C188.976 201.708 188.757 201.18 188.757 200.63C188.757 200.08 188.976 199.552 189.365 199.163C189.754 198.774 190.282 198.555 190.832 198.555H339.772C340.322 198.555 340.85 198.774 341.239 199.163C341.628 199.552 341.847 200.08 341.847 200.63C341.847 201.18 341.628 201.708 341.239 202.097C340.85 202.486 340.322 202.705 339.772 202.705Z" fill="#CCCCCC"/>
<path d="M339.772 219.766H190.832C190.282 219.766 189.754 219.548 189.365 219.159C188.976 218.769 188.757 218.242 188.757 217.691C188.757 217.141 188.976 216.613 189.365 216.224C189.754 215.835 190.282 215.616 190.832 215.616H339.772C340.322 215.616 340.85 215.835 341.239 216.224C341.628 216.613 341.847 217.141 341.847 217.691C341.847 218.242 341.628 218.769 341.239 219.159C340.85 219.548 340.322 219.766 339.772 219.766Z" fill="#CCCCCC"/>
<path d="M339.772 236.828H190.832C190.282 236.828 189.754 236.609 189.365 236.22C188.976 235.831 188.757 235.303 188.757 234.753C188.757 234.202 188.976 233.674 189.365 233.285C189.754 232.896 190.282 232.677 190.832 232.677H339.772C340.322 232.677 340.85 232.896 341.239 233.285C341.628 233.674 341.847 234.202 341.847 234.753C341.847 235.303 341.628 235.831 341.239 236.22C340.85 236.609 340.322 236.828 339.772 236.828Z" fill="#CCCCCC"/>
<path d="M364.672 172.502C367.983 172.502 370.667 169.818 370.667 166.508C370.667 163.197 367.983 160.513 364.672 160.513C361.361 160.513 358.678 163.197 358.678 166.508C358.678 169.818 361.361 172.502 364.672 172.502Z" fill="#356BFC"/>
<path d="M364.672 189.563C367.983 189.563 370.667 186.879 370.667 183.569C370.667 180.258 367.983 177.574 364.672 177.574C361.361 177.574 358.678 180.258 358.678 183.569C358.678 186.879 361.361 189.563 364.672 189.563Z" fill="#FF6584"/>
<path d="M364.672 206.624C367.983 206.624 370.667 203.941 370.667 200.63C370.667 197.319 367.983 194.635 364.672 194.635C361.361 194.635 358.678 197.319 358.678 200.63C358.678 203.941 361.361 206.624 364.672 206.624Z" fill="#356BFC"/>
<path d="M364.672 223.686C367.983 223.686 370.667 221.002 370.667 217.691C370.667 214.38 367.983 211.697 364.672 211.697C361.361 211.697 358.678 214.38 358.678 217.691C358.678 221.002 361.361 223.686 364.672 223.686Z" fill="#F2F2F2"/>
<path d="M364.672 240.747C367.983 240.747 370.667 238.063 370.667 234.752C370.667 231.442 367.983 228.758 364.672 228.758C361.361 228.758 358.678 231.442 358.678 234.752C358.678 238.063 361.361 240.747 364.672 240.747Z" fill="#F2F2F2"/>
<path d="M364.519 267.103C364.349 267.103 364.181 267.07 364.024 267.005C363.867 266.94 363.724 266.845 363.604 266.725L359.514 262.635C359.384 262.505 359.312 262.329 359.312 262.146C359.312 261.963 359.384 261.787 359.514 261.657C359.646 261.531 359.821 261.461 360.003 261.461C360.185 261.461 360.36 261.531 360.492 261.657L364.356 265.521C364.399 265.563 364.458 265.586 364.519 265.586C364.579 265.586 364.638 265.563 364.681 265.521L377.537 252.665C377.669 252.54 377.844 252.469 378.026 252.469C378.208 252.469 378.384 252.54 378.515 252.665C378.645 252.795 378.718 252.971 378.718 253.154C378.718 253.338 378.645 253.514 378.515 253.643L365.434 266.725C365.314 266.845 365.171 266.94 365.014 267.005C364.857 267.07 364.689 267.103 364.519 267.103Z" fill="#356BFC"/>
<path opacity="0.1" d="M364.519 278.65C382.091 278.65 396.336 277.825 396.336 276.806C396.336 275.787 382.091 274.962 364.519 274.962C346.947 274.962 332.702 275.787 332.702 276.806C332.702 277.825 346.947 278.65 364.519 278.65Z" fill="black"/>
<path d="M129.775 113.398H95.066C94.5183 113.397 93.9931 113.179 93.6058 112.792C93.2184 112.404 93.0006 111.879 93 111.331V93.1505C93.0006 92.6028 93.2184 92.0776 93.6058 91.6903C93.9931 91.303 94.5183 91.0851 95.066 91.0845H120.065C120.228 91.0842 120.389 91.116 120.54 91.1782C120.691 91.2404 120.828 91.3316 120.943 91.4468C121.058 91.5619 121.15 91.6987 121.212 91.8492C121.275 91.9998 121.307 92.1612 121.307 92.3241C121.307 92.4871 121.275 92.6485 121.212 92.7991C121.15 92.9496 121.058 93.0864 120.943 93.2015C120.828 93.3167 120.691 93.4079 120.54 93.4701C120.389 93.5322 120.228 93.5641 120.065 93.5638H96.7188C96.3902 93.5641 96.0751 93.6948 95.8427 93.9272C95.6103 94.1596 95.4796 94.4747 95.4792 94.8034V109.679C95.4796 110.007 95.6103 110.322 95.8427 110.555C96.0751 110.787 96.3902 110.918 96.7188 110.918H128.122C128.451 110.918 128.766 110.787 128.998 110.555C129.231 110.322 129.362 110.007 129.362 109.679V101.799C129.362 101.47 129.492 101.155 129.725 100.922C129.957 100.69 130.273 100.559 130.601 100.559C130.93 100.559 131.246 100.69 131.478 100.922C131.711 101.155 131.841 101.47 131.841 101.799V111.331C131.841 111.879 131.623 112.404 131.235 112.792C130.848 113.179 130.323 113.397 129.775 113.398Z" fill="#3F3D56"/>
<path d="M112.834 107.577C112.529 107.578 112.228 107.518 111.946 107.402C111.665 107.285 111.409 107.115 111.194 106.899L103.864 99.5697C103.632 99.3372 103.502 99.0219 103.502 98.6933C103.502 98.3646 103.632 98.0494 103.864 97.8168C104.101 97.5915 104.415 97.4658 104.741 97.4658C105.067 97.4658 105.381 97.5915 105.618 97.8168L112.542 104.741C112.62 104.817 112.725 104.859 112.834 104.859C112.942 104.859 113.047 104.817 113.126 104.741L136.166 81.7019C136.402 81.4765 136.716 81.3508 137.042 81.3508C137.368 81.3508 137.682 81.4765 137.919 81.7019C138.151 81.9344 138.281 82.2497 138.281 82.5784C138.281 82.9071 138.151 83.2224 137.918 83.4548L114.474 106.899C114.258 107.115 114.003 107.285 113.721 107.402C113.44 107.518 113.138 107.578 112.834 107.577Z" fill="#356BFC"/>
<path d="M158.842 143.239H200.803C201.822 143.239 202.648 142.413 202.648 141.395V131.711C202.648 130.693 201.822 129.867 200.803 129.867H158.842C157.823 129.867 156.997 130.693 156.997 131.711V141.395C156.997 142.413 157.823 143.239 158.842 143.239Z" fill="#2F2E41"/>
<path d="M199.881 129.406H136.247C135.884 129.406 135.524 129.477 135.188 129.616C134.853 129.755 134.548 129.959 134.291 130.216C134.034 130.473 133.83 130.778 133.691 131.114C133.552 131.449 133.481 131.809 133.481 132.173V175.978C133.481 176.712 133.772 177.416 134.291 177.935C134.81 178.453 135.513 178.745 136.247 178.745H144.086C144.82 178.745 145.524 178.453 146.042 177.935C146.561 177.416 146.853 176.712 146.853 175.978V142.778H156.997V176.439C156.997 177.173 157.289 177.877 157.808 178.396C158.327 178.915 159.03 179.206 159.764 179.206H167.603C168.337 179.206 169.04 178.915 169.559 178.396C170.078 177.877 170.37 177.173 170.37 176.439V142.778H199.881C200.615 142.778 201.318 142.487 201.837 141.968C202.356 141.449 202.648 140.745 202.648 140.011V132.173C202.648 131.809 202.576 131.449 202.437 131.114C202.298 130.778 202.094 130.473 201.837 130.216C201.58 129.959 201.275 129.755 200.94 129.616C200.604 129.477 200.244 129.406 199.881 129.406Z" fill="#2F2E41"/>
<path d="M215.853 143.498L155.378 142.224C154.967 142.216 154.563 142.116 154.196 141.932C153.829 141.748 153.507 141.484 153.255 141.16C153.002 140.836 152.825 140.46 152.735 140.059C152.646 139.658 152.647 139.243 152.739 138.842L167.463 74.3783C167.603 73.7674 167.945 73.2219 168.435 72.8312C168.925 72.4405 169.534 72.2277 170.16 72.2277H185.995C191.201 72.2277 196.248 74.0196 200.288 77.3022C204.328 80.5848 207.115 85.1581 208.181 90.2535L218.62 140.165C218.705 140.573 218.697 140.994 218.597 141.398C218.497 141.802 218.306 142.178 218.04 142.499C217.775 142.819 217.44 143.075 217.061 143.248C216.682 143.421 216.27 143.506 215.853 143.498Z" fill="#2F2E41"/>
<path d="M178.402 66.4801C192.032 66.4801 203.08 55.4312 203.08 41.8017C203.08 28.1722 192.032 17.1233 178.402 17.1233C164.773 17.1233 153.724 28.1722 153.724 41.8017C153.724 55.4312 164.773 66.4801 178.402 66.4801Z" fill="#356BFC"/>
<path d="M167.206 28.514C164.326 27.8346 161.216 26.9205 159.161 24.6527C157.412 22.7221 156.592 19.7427 158.142 17.4539C159.557 15.364 162.348 14.5972 164.698 14.2053C167.429 13.7497 170.235 13.6832 172.798 12.521C174.056 11.9519 175.154 11.0808 175.994 9.98504C176.774 8.88972 177.451 7.72457 178.016 6.50449C178.552 5.31539 179.268 4.21596 180.139 3.24492C181.129 2.27539 182.406 1.65195 183.779 1.46761C186.87 0.997734 189.805 2.42646 192.238 4.20071C194.594 5.95263 196.731 7.98062 198.604 10.2413C202.856 15.3094 205.784 21.3545 207.123 27.8337C207.303 28.7049 208.637 28.3362 208.457 27.4659C207.177 21.3343 204.516 15.5749 200.679 10.6244C198.778 8.15604 196.595 5.91876 194.174 3.95829C191.667 1.93897 188.773 0.179125 185.476 0.0123632C183.951 -0.0764482 182.429 0.225763 181.054 0.890323C179.791 1.55633 178.728 2.54674 177.973 3.75977C176.42 6.11573 175.671 9.16017 173.164 10.7538C170.626 12.3681 167.447 12.384 164.568 12.8331C162.006 13.2326 159.155 14.0764 157.421 16.1333C155.503 18.4086 155.575 21.5091 157.008 24.0185C158.599 26.8066 161.557 28.3282 164.527 29.2354C165.289 29.4683 166.062 29.6649 166.838 29.8479C167.704 30.0521 168.074 28.7186 167.206 28.514Z" fill="#2F2E41"/>
<path d="M181.068 50.0414C179.543 49.9986 177.646 49.9455 176.185 48.8783C175.75 48.5473 175.392 48.1251 175.137 47.6413C174.883 47.1576 174.737 46.6239 174.71 46.0778C174.683 45.6898 174.747 45.3009 174.896 44.9416C175.045 44.5822 175.275 44.2622 175.568 44.0064C176.331 43.3611 177.445 43.2094 178.647 43.5633L177.402 34.4671L178.316 34.3419L179.779 45.0353L179.016 44.6854C178.131 44.2793 176.917 44.0735 176.163 44.7107C175.978 44.8773 175.833 45.0844 175.741 45.3159C175.649 45.5474 175.611 45.797 175.631 46.0454C175.654 46.4518 175.763 46.8487 175.953 47.209C176.142 47.5694 176.407 47.8846 176.729 48.1334C177.866 48.9638 179.378 49.0714 181.094 49.1192L181.068 50.0414Z" fill="#2F2E41"/>
<path d="M172.884 35.2516H167.917V36.1738H172.884V35.2516Z" fill="#2F2E41"/>
<path d="M188.562 35.2516H183.595V36.1738H188.562V35.2516Z" fill="#2F2E41"/>
<path d="M131.198 119.369C130.622 119.37 130.058 119.204 129.574 118.893C129.09 118.582 128.705 118.138 128.466 117.615L125.644 111.421C125.481 111.063 125.39 110.676 125.376 110.283C125.363 109.89 125.427 109.497 125.564 109.129C125.702 108.76 125.911 108.422 126.18 108.134C126.448 107.847 126.771 107.615 127.129 107.451L178.748 83.9351C179.472 83.6066 180.296 83.5784 181.041 83.8568C181.785 84.1353 182.388 84.6975 182.719 85.4202L185.54 91.6137C185.869 92.3373 185.897 93.1616 185.619 93.9058C185.34 94.6501 184.778 95.2537 184.055 95.5841L132.436 119.1C132.047 119.277 131.625 119.369 131.198 119.369Z" fill="#356BFC"/>
</g>
<defs>
<clipPath id="clip0_1_188">
<rect width="313.403" height="300" fill="white" transform="translate(93)"/>
</clipPath>
</defs>
</svg>
